<?xml version="1.0" encoding="utf-8"?>
<!-- Generator: Adobe Illustrator 19.0.0, SVG Export Plug-In . SVG Version: 6.00 Build 0)  -->
<svg version="1.1" id="Livello_1" xmlns="http://www.w3.org/2000/svg" xmlns:xlink="http://www.w3.org/1999/xlink" x="0px" y="0px"
	 viewBox="0 0 687.3 175.4" style="enable-background:new 0 0 687.3 175.4;" xml:space="preserve">
<style type="text/css">
	.st0{fill:#B4D6CB;}
</style>
<g>
	<g id="XMLID_43_">
		<path id="XMLID_86_" class="st0" d="M0.8,6.5C0.2,2.6,0,0.5,0,0.4L4,0c0,0,0.2,2.1,0.8,5.8L0.8,6.5z"/>
	</g>
	<g id="XMLID_42_">
		<path id="XMLID_45_" class="st0" d="M186.9,175.4c-2.6,0-5.3,0-7.9-0.1l0.1-4c3.8,0.1,7.8,0.2,11.8,0.1l0.1,4
			C189.6,175.4,188.2,175.4,186.9,175.4z M198.9,175.1l-0.2-4c3.9-0.2,7.8-0.5,11.8-0.8l0.4,4C206.8,174.6,202.8,174.9,198.9,175.1z
			 M171,174.8c-4-0.3-8-0.7-11.9-1.1l0.5-4c3.8,0.5,7.8,0.9,11.7,1.1L171,174.8z M218.8,173.4l-0.5-4c3.8-0.5,7.8-1,11.7-1.6l0.6,4
			C226.6,172.4,222.7,173,218.8,173.4z M151.2,172.5c-4-0.7-7.9-1.4-11.8-2.3l0.9-3.9c3.8,0.9,7.6,1.6,11.5,2.3L151.2,172.5z
			 M238.5,170.5l-0.7-3.9c3.8-0.7,7.7-1.5,11.6-2.3l0.8,3.9C246.3,169,242.3,169.8,238.5,170.5z M131.7,168.3
			c-3.9-1.1-7.7-2.3-11.4-3.6l1.3-3.8c3.6,1.3,7.4,2.5,11.2,3.5L131.7,168.3z M257.9,166.4l-0.9-3.9c3.8-0.9,7.6-1.9,11.5-2.9l1,3.9
			C265.6,164.5,261.7,165.5,257.9,166.4z M675.7,164c-2.5-3-5.1-6-7.8-8.8l2.9-2.8c2.7,2.9,5.4,5.9,8,9L675.7,164z M112.8,161.8
			c-3.7-1.5-7.4-3.2-10.9-4.9l1.8-3.6c3.5,1.7,7.1,3.3,10.7,4.8L112.8,161.8z M277.2,161.4l-1.1-3.8c3.7-1.1,7.5-2.2,11.3-3.4
			l1.2,3.8C284.8,159.1,280.9,160.3,277.2,161.4z M296.2,155.5l-1.3-3.8c3.7-1.2,7.5-2.5,11.2-3.9l1.3,3.8
			C303.7,153,299.9,154.3,296.2,155.5z M94.7,153.1c-3.5-1.9-6.9-4.1-10.3-6.3l2.2-3.3c3.2,2.1,6.6,4.2,10,6.1L94.7,153.1z
			 M662.4,149.7c-2.8-2.7-5.8-5.3-8.8-7.7l2.5-3.1c3.1,2.5,6.2,5.2,9.1,7.9L662.4,149.7z M314.9,148.9l-1.4-3.7
			c3.6-1.4,7.4-2.8,11-4.3l1.5,3.7C322.3,146.1,318.5,147.5,314.9,148.9z M77.9,142.3c-3.2-2.4-6.4-4.9-9.4-7.5l2.6-3
			c3,2.5,6,5,9.2,7.3L77.9,142.3z M333.4,141.6l-1.5-3.7l1.2-0.5c3.2-1.3,6.5-2.6,9.8-3.9l1.5,3.7c-3.3,1.3-6.6,2.6-9.7,3.9
			L333.4,141.6z M647.4,137.3c-3.1-2.3-6.4-4.5-9.7-6.5l2.1-3.4c3.4,2.1,6.8,4.4,10,6.7L647.4,137.3z M351.7,134.4l-1.4-3.8
			c3.7-1.4,7.4-2.7,11.2-4l1.3,3.8C359.1,131.7,355.4,133.1,351.7,134.4z M62.6,129.4c-2.9-2.7-5.7-5.6-8.4-8.5l2.9-2.7
			c2.7,2.9,5.4,5.7,8.2,8.4L62.6,129.4z M370.3,127.9l-1.3-3.8c3.8-1.2,7.6-2.5,11.4-3.6l1.2,3.8
			C377.9,125.4,374.1,126.6,370.3,127.9z M631,126.8c-3.4-1.9-6.9-3.7-10.4-5.3l1.7-3.6c3.6,1.7,7.2,3.5,10.7,5.5L631,126.8z
			 M389.2,122l-1.1-3.8c3.8-1.1,7.6-2.2,11.5-3.2l1,3.9C396.8,119.8,392.9,120.9,389.2,122z M613.3,118.3c-3.6-1.5-7.3-2.9-11-4.2
			l1.3-3.8c3.8,1.3,7.6,2.7,11.2,4.3L613.3,118.3z M408.2,116.8l-1-3.9c3.9-1,7.8-1.9,11.6-2.8l0.9,3.9
			C415.9,114.8,412,115.8,408.2,116.8z M48.8,114.9c-2.5-3-5-6.2-7.4-9.4l3.2-2.4c2.3,3.2,4.8,6.3,7.3,9.2L48.8,114.9z M427.4,112.2
			l-0.9-3.9c3.9-0.9,7.8-1.7,11.7-2.4l0.8,3.9C435.2,110.6,431.3,111.4,427.4,112.2z M594.9,111.7c-3.7-1.1-7.5-2.1-11.4-3.1
			l0.9-3.9c3.9,0.9,7.8,2,11.6,3.1L594.9,111.7z M446.7,108.4l-0.7-3.9c3.9-0.7,7.9-1.4,11.8-1.9l0.6,4
			C454.5,107,450.6,107.7,446.7,108.4z M575.9,106.9c-3.8-0.8-7.7-1.5-11.6-2.1l0.6-4c4,0.6,8,1.3,11.8,2.1L575.9,106.9z
			 M466.2,105.3l-0.5-4c4-0.5,7.9-1,11.8-1.4l0.4,4C474.1,104.3,470.1,104.8,466.2,105.3z M556.5,103.8c-3.8-0.5-7.8-0.9-11.7-1.2
			l0.3-4c4,0.3,8,0.7,11.9,1.2L556.5,103.8z M485.8,103.1l-0.4-4c4-0.4,8-0.7,11.9-0.9l0.2,4C493.7,102.5,489.7,102.8,485.8,103.1z
			 M536.9,102c-3.9-0.2-7.8-0.4-11.8-0.4l0.1-4c4,0.1,8,0.2,11.9,0.4L536.9,102z M505.4,101.8l-0.2-4c4-0.2,8-0.2,11.9-0.3l0,4
			C513.4,101.6,509.4,101.7,505.4,101.8z M36.8,98.9c-2.2-3.3-4.4-6.7-6.4-10.1l3.4-2c2,3.4,4.1,6.7,6.3,9.9L36.8,98.9z M26.5,81.8
			c-1.9-3.5-3.7-7.1-5.4-10.7l3.6-1.7c1.7,3.6,3.5,7.1,5.3,10.5L26.5,81.8z M17.8,63.8c-1.6-3.6-3.1-7.4-4.5-11.1l3.7-1.4
			c1.4,3.7,2.9,7.4,4.4,10.9L17.8,63.8z M10.6,45.2C9.3,41.4,8.1,37.6,7,33.7l3.8-1.1c1.1,3.8,2.3,7.6,3.5,11.3L10.6,45.2z M4.9,26
			c-1-3.9-1.9-7.9-2.7-11.7l3.9-0.8c0.8,3.8,1.6,7.6,2.6,11.5L4.9,26z"/>
	</g>
	<g id="XMLID_41_">
		<path id="XMLID_44_" class="st0" d="M684,175.1c-1.1-1.6-2.3-3.3-3.4-4.8l3.2-2.4c1.2,1.6,2.4,3.3,3.5,5L684,175.1z"/>
	</g>
</g>
</svg>
