<?xml version="1.0" encoding="utf-8"?>
<!-- Generator: Adobe Illustrator 19.0.0, SVG Export Plug-In . SVG Version: 6.00 Build 0)  -->
<svg version="1.1" id="Livello_1" xmlns="http://www.w3.org/2000/svg" xmlns:xlink="http://www.w3.org/1999/xlink" x="0px" y="0px"
	 viewBox="0 0 687.3 175.4" style="enable-background:new 0 0 687.3 175.4;" xml:space="preserve">
<style type="text/css">
	.st0{fill:#B4D6CB;}
</style>
<g id="XMLID_44_">
	<g id="XMLID_43_">
		<path id="XMLID_85_" class="st0" d="M7,177.4c0-0.1,0-2.3,0.4-6.2l4,0.4c-0.4,3.6-0.4,5.7-0.4,5.8L7,177.4z"/>
	</g>
	<g id="XMLID_42_">
		<path id="XMLID_46_" class="st0" d="M12.5,163.8l-3.9-0.7c0.7-3.9,1.6-8,2.8-12l3.9,1.1C14.1,156,13.2,159.9,12.5,163.8z
			 M17.5,144.5l-3.8-1.3c1.3-3.8,2.8-7.7,4.5-11.5l3.7,1.6C20.3,137,18.8,140.8,17.5,144.5z M25.3,126.2l-3.6-1.8
			c1.8-3.6,3.9-7.2,6-10.7l3.4,2.1C29.1,119.1,27.1,122.6,25.3,126.2z M35.5,109l-3.3-2.3c2.3-3.3,4.8-6.6,7.3-9.8l3.1,2.5
			C40.2,102.6,37.8,105.8,35.5,109z M47.8,93.3l-3-2.7c2.7-3,5.5-6,8.5-8.9l2.8,2.9C53.2,87.5,50.5,90.4,47.8,93.3z M559.8,79.7
			l-0.1-4c4-0.1,8-0.4,11.9-0.9l0.5,4C568,79.3,563.9,79.6,559.8,79.7z M551.5,79.6c-4-0.2-8.1-0.6-12.2-1.1l0.5-4
			c4,0.6,8,0.9,11.9,1.1L551.5,79.6z M61.9,79.2l-2.7-3c3-2.7,6.2-5.3,9.4-7.9l2.5,3.1C68,74,64.9,76.6,61.9,79.2z M580.2,77.3
			l-0.8-3.9c3.8-0.8,7.7-1.9,11.5-3.2l1.3,3.8C588.2,75.4,584.1,76.5,580.2,77.3z M531.2,77.1c-3.8-0.7-7.9-1.7-11.9-2.7l1-3.9
			c4,1,7.9,1.9,11.7,2.7L531.2,77.1z M511.4,72.2c-3.7-1.1-7.6-2.4-11.6-3.8l1.3-3.8c4,1.4,7.8,2.6,11.5,3.7L511.4,72.2z
			 M599.8,71.2l-1.5-3.7c3.6-1.5,7.2-3.2,10.7-5.2l1.9,3.5C607.2,67.8,603.5,69.6,599.8,71.2z M77.5,66.7l-2.3-3.2
			c3.2-2.3,6.7-4.7,10.1-6.9l2.2,3.4C84,62.1,80.7,64.4,77.5,66.7z M492.2,65.7c-3.6-1.3-7.3-2.8-11.4-4.4l1.5-3.7
			c4,1.6,7.7,3,11.3,4.3L492.2,65.7z M617.9,61.7l-2.1-3.4c3.3-2,6.6-4.3,9.9-6.7l2.4,3.2C624.7,57.2,621.3,59.6,617.9,61.7z
			 M473.3,58.3c-3.7-1.5-7.4-3.1-11.2-4.7l1.6-3.7c3.8,1.6,7.5,3.1,11.2,4.7L473.3,58.3z M94.3,55.8l-2-3.4c3.5-2,7-4,10.7-5.9
			l1.9,3.5C101.2,51.8,97.7,53.8,94.3,55.8z M454.6,50.4l-0.1,0c-3.7-1.5-7.3-3.1-11.1-4.7L445,42c3.7,1.6,7.4,3.1,11.1,4.7l0.1,0
			L454.6,50.4z M634.5,49.7l-2.5-3.1c3-2.5,6.1-5.1,9.1-7.9l2.7,2.9C640.7,44.5,637.6,47.2,634.5,49.7z M111.9,46.3l-1.7-3.6
			c3.6-1.7,7.3-3.4,11.1-5.1l1.6,3.7C119.2,43,115.5,44.6,111.9,46.3z M436,42.6c-4-1.6-7.7-3.1-11.2-4.5l1.5-3.7
			c3.6,1.4,7.3,2.9,11.3,4.6L436,42.6z M130.3,38.3l-1.5-3.7c3.7-1.5,7.6-2.9,11.4-4.3l1.3,3.8C137.8,35.4,134,36.8,130.3,38.3z
			 M649.7,36.1l-2.8-2.8c2.8-2.7,5.6-5.6,8.3-8.7l2.9,2.7C655.3,30.3,652.5,33.3,649.7,36.1z M417.3,35.2c-3.9-1.5-7.7-2.9-11.3-4.2
			l1.4-3.8c3.7,1.3,7.5,2.8,11.4,4.2L417.3,35.2z M149.2,31.5l-1.2-3.8c3.8-1.2,7.7-2.4,11.7-3.6l1.1,3.8
			C156.8,29.1,152.9,30.3,149.2,31.5z M398.3,28.3c-3.9-1.3-7.7-2.6-11.5-3.7l1.2-3.8c3.8,1.2,7.7,2.4,11.6,3.8L398.3,28.3z
			 M168.5,25.9l-1-3.9c3.9-1,7.8-2,11.8-2.9l0.9,3.9C176.2,23.9,172.3,24.9,168.5,25.9z M379.1,22.3c-3.9-1.1-7.8-2.2-11.6-3.1
			l1-3.9c3.9,1,7.8,2,11.8,3.2L379.1,22.3z M188,21.3l-0.8-3.9c3.9-0.8,7.9-1.6,11.9-2.3l0.7,3.9C195.9,19.7,191.9,20.4,188,21.3z
			 M663.6,21.2l-3-2.6c2.6-2.9,5.2-6,7.7-9.2l3.1,2.5C668.8,15.1,666.1,18.2,663.6,21.2z M207.8,17.6l-0.6-3.9c3.9-0.6,8-1.3,12-1.8
			l0.6,4C215.7,16.3,211.7,16.9,207.8,17.6z M359.7,17.3c-3.9-0.9-7.9-1.7-11.8-2.4l0.7-3.9c3.9,0.7,8,1.5,12,2.4L359.7,17.3z
			 M227.7,14.7l-0.5-4c4-0.5,8-1,12.1-1.4l0.4,4C235.7,13.8,231.6,14.2,227.7,14.7z M340,13.5c-4-0.6-8-1.2-11.9-1.6l0.4-4
			c4,0.5,8.1,1,12.1,1.6L340,13.5z M247.7,12.6l-0.4-4c4-0.4,8.1-0.7,12.1-0.9l0.3,4C255.7,11.9,251.7,12.2,247.7,12.6z M320,11.1
			c-4-0.3-8-0.6-12-0.7l0.2-4c4,0.2,8.1,0.4,12.2,0.8L320,11.1z M267.8,11.1l-0.2-4c4-0.2,8.1-0.4,12.1-0.6l0.2,4
			C275.9,10.7,271.8,10.9,267.8,11.1z M288,10.3l-0.1-4l2.5-0.1c3.3-0.1,6.5-0.1,9.8-0.1l0,4c-3.2,0-6.4,0-9.6,0.1L288,10.3z"/>
	</g>
	<g id="XMLID_41_">
		<path id="XMLID_45_" class="st0" d="M676.7,5.1l-3.2-2.4c1.2-1.6,2.4-3.1,3.6-4.8l3.2,2.4C679.1,2,677.9,3.6,676.7,5.1z"/>
	</g>
</g>
</svg>
