<?xml version="1.0" encoding="utf-8"?>
<!-- Generator: Adobe Illustrator 19.0.0, SVG Export Plug-In . SVG Version: 6.00 Build 0)  -->
<svg version="1.1" id="Livello_1" xmlns="http://www.w3.org/2000/svg" xmlns:xlink="http://www.w3.org/1999/xlink" x="0px" y="0px"
	 viewBox="0 0 165 165" style="enable-background:new 0 0 165 165;" xml:space="preserve">
<style type="text/css">
	.st0{fill:#19C1CE;}
	.st1{fill:#FFFFFF;}
</style>
<g id="XMLID_15_">
	<circle id="XMLID_90_" class="st0" cx="82.5" cy="82.5" r="80.2"/>
	<g id="XMLID_16_">
		<g id="XMLID_64_">
			<path id="XMLID_88_" class="st1" d="M49.4,126.9l8.4-16.4c1.7-3.3,2.8-5.1,2.6-7.1c-0.1-1.3-1.1-2-2.6-1.7
				c-1.3,0.3-2.1,1.3-2,2.7c0.1,1.1,0.7,1.9,1.7,2.2l-4,8.2c-2.5-0.8-5.6-3.2-6-8.9c-0.4-6.6,3.9-11.7,10.2-13
				c6.2-1.3,10.6,2.4,11,8.6c0.4,5.6-2.5,9.1-5.4,13.6l6.8-1.4l-1.1,9.1L49.4,126.9z"/>
			<g id="XMLID_79_">
				<polygon id="XMLID_87_" class="st1" points="87.4,97 87.3,97 85.5,87.7 81.7,88.5 79.3,98.7 79.3,98.7 77.5,89 71.5,90.8 
					75,110.1 80.5,108.9 83.2,97.7 83.2,97.6 85.2,107.9 90.6,106.7 95.8,85.4 89.9,86.3 				"/>
				<path id="XMLID_84_" class="st1" d="M106.5,82.6c-6.9,1.5-10.7,7.7-10.9,12.9c-0.2,5.2,3.1,9.8,9.9,8.4
					c6.8-1.5,10.6-7.7,10.9-12.9C116.6,85.8,113.3,81.1,106.5,82.6z M105.8,97.9c-2.7,0.6-4.2-1.3-4.1-3.7c0.1-2.4,1.8-5,4.5-5.6
					c2.7-0.6,4.2,1.3,4.1,3.7C110.1,94.7,108.4,97.3,105.8,97.9z"/>
				<path id="XMLID_81_" class="st1" d="M133.1,83.8c0.2-3.5-1.7-6.2-6.9-5.1l-7.3,1.6l-1,20.8l5.8-1.7l0.4-8.1l0.1,0l2.6,7.9
					l6.4-1.9l-3.1-8C132,88,133,86,133.1,83.8z M124.9,89.6l-0.8,0.2l0.2-4.8l0.8-0.2c1.4-0.3,2,0.6,1.9,2
					C127,88.1,126.3,89.3,124.9,89.6z"/>
				<polygon id="XMLID_80_" class="st1" points="152,73.1 145.5,74.1 141.8,83.9 141.8,83.9 142.3,74.8 136.1,76.6 135,97.4 
					141.1,95.6 141.7,85.5 141.7,85.5 144.7,95.3 151.6,93.3 147.7,83.2 				"/>
			</g>
			<g id="XMLID_65_">
				<path id="XMLID_78_" class="st1" d="M17.3,87.7c0.1-3.3,2.4-5.6,5.5-6.3c1.4-0.3,2.3-0.2,3.5,0.1l-1-6.7
					c-0.9-0.1-1.8-0.1-3.1,0.2c-6.9,1.5-11.7,7.5-11.8,14.4c-0.1,6.8,4.8,10.4,10.8,9.1c1.3-0.3,2.8-0.8,4-1.4l1.1-7.3
					c-1.2,1-2.3,1.5-3.9,1.9C19.6,92.3,17.2,90.9,17.3,87.7z"/>
				<polygon id="XMLID_77_" class="st1" points="38.9,71.3 36.4,79.3 36.4,79.4 34,72.4 26.5,74.7 32.8,88.2 29.5,95.9 36.9,95.1 
					45.9,70.5 				"/>
				<path id="XMLID_76_" class="st1" d="M52.2,80.1c0.1-3.3,2.4-5.6,5.6-6.3c1.4-0.3,2.3-0.2,3.5,0.1l-0.9-6.7
					c-0.9-0.1-1.8-0.1-3,0.2c-6.9,1.5-11.8,7.5-12,14.4c-0.2,6.8,4.7,10.4,10.7,9.1c1.3-0.3,2.8-0.8,4-1.4l1.1-7.3
					c-1.2,1-2.3,1.5-3.9,1.9C54.6,84.7,52.1,83.2,52.2,80.1z"/>
				<polygon id="XMLID_75_" class="st1" points="70.9,64.3 64.1,66.4 63.3,88.8 76.1,86 77.8,79.1 70.4,80.7 				"/>
				<path id="XMLID_66_" class="st1" d="M142.9,65.5c3.5-2.4,5.6-6.4,5.8-9.9c0.3-4.2-1.9-8.2-6.7-8.3c-0.7,0-1.5,0-2.3,0.2
					c-2.1,0.4-3.9,1.3-5.5,2.5l-2.3-3.3l-1.4-2.6l0.5-0.8c0.2-0.3,0.2-0.8,0-1.1c-0.2-0.3-0.6-0.5-1-0.4l-7.8,1.6
					c-0.5,0.1-0.9,0.6-0.8,1.1c0.1,0.5,0.6,0.9,1.1,0.8l5.8-1.2c0,0.1,0.1,0.3,0.1,0.4l1.1,2c-0.2,0-0.4,0-0.6,0.1l-14.2,2.8
					l-0.9-1.2l2.3-0.9c0.5-0.2,0.7-0.7,0.6-1.2c-0.1-0.5-0.6-0.8-1.1-0.7l-5.7,1c-0.3,0-0.5,0.2-0.7,0.5c-0.1,0.2-0.2,0.5-0.1,0.8
					l0.4,1.2c0.1,0.3,0.3,0.5,0.5,0.6c0.1,0.1,0.2,0.1,0.4,0.1c0.1,0,0.3,0,0.4-0.1l1.1-0.5l1.3,1.7l-1.4,3c-0.1,0-0.3,0-0.4,0
					c-0.7,0-1.5,0-2.3,0.2c-6.5,1.2-10.2,6.9-10.5,11.8c-0.3,3.7,1.5,7.3,5.2,8.1l-17.9,3.8l0.1-2.4l4.2-0.9l0.2-5.6l-4.3,0.9
					l0.1-2.2L93,66l-1.1-5.7l-12,2.6L79,85.3l74-16.3l3.7-6.4L142.9,65.5z M134.3,53.9c0-0.1,0.1-0.1,0.2-0.2l3.5,4.9
					c0.2,0.3,0.5,0.4,0.8,0.4c0.2,0,0.4-0.1,0.6-0.2c0.4-0.3,0.5-0.9,0.2-1.4l-3.6-5.1c1.1-0.9,2.5-1.6,4.4-2
					c0.6-0.1,1.2-0.2,1.7-0.2c1.3,0,2.2,0.4,2.9,1.2c0.8,0.9,1.3,2.4,1.1,4.1c-0.3,3.8-3.3,8.3-8.3,9.3c-0.6,0.1-1.2,0.2-1.7,0.2
					c-1.2,0-2.2-0.4-2.9-1.2c-0.9-0.9-1.3-2.4-1.2-4.1C132.1,57.6,132.9,55.6,134.3,53.9z M129.4,48.6c0.6-0.1,0.9,0.3,1,0.5
					c0.1,0.1,0.3,0.6-0.1,1.1l-5.9,7c0,0,0,0-0.1,0c-1-0.3-2-0.2-2.9,0.2l-5.2-6.1L129.4,48.6z M123.3,61.8c-0.4,0.1-0.7,0-1-0.2
					c-0.3-0.2-0.5-0.5-0.6-0.9c-0.1-0.7,0.3-1.5,1.1-1.6c0.1,0,0.2,0,0.3,0c0.6,0,1.2,0.5,1.3,1.1C124.5,60.9,124,61.6,123.3,61.8z
					 M114.7,52.4l5.4,6.4c-0.2,0.4-0.3,0.8-0.4,1.2l-1.5,0.3c-0.2-2.8-1.7-5.3-4.4-6.2L114.7,52.4z M112.7,56.7
					c0.7,0.2,1.2,0.5,1.6,1c0.7,0.8,1.1,2,1.1,3.3l-5.3,1.2L112.7,56.7z M101.5,65.9c0.1-2,1-4,2.3-5.7c1.1-1.3,3-3,5.9-3.6
					c0.3-0.1,0.6-0.1,0.9-0.1l-3,6.7c-0.2,0.3-0.1,0.7,0.1,1c0.2,0.2,0.4,0.3,0.7,0.4c0.1,0,0.2,0,0.3,0l6.5-1.5
					c-0.8,3.5-3.6,7.2-8.1,8c-0.6,0.1-1.2,0.2-1.7,0.2c-1.2,0-2.2-0.4-2.9-1.2C101.8,69.1,101.3,67.6,101.5,65.9z M118.2,62.4
					l1.8-0.4c0.3,0.5,0.6,0.9,1.1,1.2c0.5,0.4,1.1,0.5,1.8,0.6c0.2,0,0.5,0,0.7-0.1c1.8-0.4,3-2.1,2.6-3.9c-0.1-0.5-0.3-0.9-0.5-1.2
					l6-7.1c0.2-0.2,0.4-0.5,0.5-0.8l0.5,0.7c-2.2,2.3-3.4,5.3-3.6,8c-0.3,3.7,1.4,7.1,4.9,8l-22,4.7
					C115.8,69.8,117.9,65.9,118.2,62.4z"/>
			</g>
		</g>
		<g id="XMLID_43_">
			<path id="XMLID_60_" class="st1" d="M100.7,20c-0.4,3.5-3.8,5.3-7.2,3.9c-1.2-0.5-2.2-1.2-3.4-1.6c-2.1-0.8-4.3-0.4-6.4,0.2
				c-2,0.6-3.8,0.5-5.4-1.1c-1.8-1.8-2.2-4.4-0.8-6.4c1.3-2,3.9-2.8,6.3-1.9c0.7,0.3,1.4,0.7,2.1,1.1c2.1,1.2,4.3,1.4,6.6,0.8
				c1.1-0.3,2.2-0.7,3.4-0.6C98.9,14.5,101,17,100.7,20z M83.2,18c0.1-0.9-0.5-1.6-1.3-1.7c-0.9-0.1-1.6,0.5-1.6,1.4
				c0,0.8,0.3,1.5,1.3,1.7C82.3,19.4,83.1,18.8,83.2,18z M95.6,20.9c0.9,0.1,1.6-0.5,1.6-1.4c0-0.9-0.4-1.6-1.4-1.7
				c-0.9,0-1.4,0.5-1.6,1.4C94.1,20.1,94.8,20.9,95.6,20.9z"/>
			<path id="XMLID_56_" class="st1" d="M109.9,19.4c1.7-0.1,3.1,1,4.1,2.5c1.7,2.6,3.9,4.3,7.1,4.8c2.4,0.3,4.4,1.4,5.1,3.9
				c0.6,2.1-0.2,3.8-1.7,5.2c-1.3,1.2-3.6,1.3-5.2,0.6c-1.3-0.6-2.2-1.6-2.9-2.7c-1.6-2.6-4-3.7-7-4.2c-2.3-0.4-4.2-1.4-4.8-4
				C103.8,22.1,106.2,19.2,109.9,19.4z M121.4,30.4c-1,0-1.7,0.6-1.7,1.5c0,0.8,0.9,1.6,1.6,1.5c0.8-0.1,1.5-0.5,1.5-1.5
				C122.8,30.9,122.3,30.5,121.4,30.4z M110.9,24.4c0-0.9-0.3-1.5-1.3-1.6c-0.9-0.1-1.7,0.5-1.7,1.3c0,0.8,0.4,1.5,1.3,1.7
				C110.1,25.9,110.8,25.3,110.9,24.4z"/>
			<path id="XMLID_52_" class="st1" d="M15.6,64.4c0.3-1,1.1-1.8,1.8-2.6c1.9-2,2.8-4.4,2.6-7.1c-0.1-1.7-0.1-3.4,1.1-4.8
				c1.8-2.1,4.7-2.5,6.9-1c2.1,1.5,2.7,4.6,1.2,6.9c-0.2,0.3-0.3,0.6-0.6,0.8C25.9,59,25,62,25.2,65.6c0.3,4-3,5.7-5.4,5.6
				C16.6,70.9,14.4,67.5,15.6,64.4z M24.4,54.3c0.9,0.3,1.9-0.2,2.1-0.9c0.2-0.9-0.1-1.6-1-1.9c-0.9-0.3-1.6,0.1-1.9,1
				C23.3,53.3,23.7,54,24.4,54.3z M18.7,65.7c-0.2,0.9,0.1,1.6,1,1.9c0.9,0.3,1.6-0.1,2-0.9c0.3-0.7-0.2-1.7-1-2
				C19.8,64.5,19.1,64.8,18.7,65.7z"/>
			<path id="XMLID_48_" class="st1" d="M68.2,14.4c2.9,0.5,4.4,2.4,4.4,5.1c0,2.3-1.8,4.3-4.3,4.8c-1.5,0.2-2.9,0.1-4.4,0.1
				c-1.7,0.1-3.2,0.7-4.4,1.8c-1.6,1.4-3.2,2.7-5.5,2.6c-2.4,0-4.5-2-4.7-4.5c-0.2-2.6,1.5-4.8,3.9-5.3c1.3-0.2,2.7-0.1,4-0.1
				c2.5,0,4.4-1.2,6.2-2.8C65,14.9,66.5,14,68.2,14.4z M55.9,24.3c0.2-0.8-0.3-1.6-1.2-1.8c-0.9-0.1-1.5,0.1-1.8,1.1
				c-0.2,1,0.3,1.6,1.1,1.9C54.7,25.7,55.7,25,55.9,24.3z M67.4,20.8c0.8,0.2,1.7-0.5,1.8-1.2c0.1-0.9-0.2-1.5-1.2-1.7
				c-0.9-0.2-1.5,0.2-1.7,1.1C66,19.8,66.5,20.6,67.4,20.8z"/>
			<path id="XMLID_44_" class="st1" d="M43.8,26.5c1.9,0.5,3.2,2.2,3.6,4.1c0.3,1.8-0.8,4.2-2.4,5c-1.1,0.5-2.1,1.1-3.2,1.6
				c-2.3,1.1-3.4,3.2-4.4,5.4c-1.2,2.8-3,3.9-5.6,3.7c-2-0.2-3.8-1.8-4.3-3.8c-0.4-1.9,0.5-4.3,2.1-5.3c1.1-0.7,2.2-1.2,3.4-1.7
				c1.9-0.8,3-2.4,3.9-4.2c0.4-0.8,0.7-1.5,1.2-2.3C39.2,26.9,41.6,25.9,43.8,26.5z M44,31.6c0.1-0.8-0.2-1.5-1.1-1.8
				c-1-0.3-1.6,0.2-1.8,1.2c-0.2,0.9,0.1,1.7,1,1.9C43,33.1,43.7,32.7,44,31.6z M33.9,41.7c0.3-0.8-0.2-1.7-1-2
				c-0.9-0.3-1.5,0.1-1.8,1c-0.3,0.9-0.1,1.6,0.9,2C32.7,43,33.6,42.5,33.9,41.7z"/>
		</g>
		<g id="XMLID_17_">
			<path id="XMLID_39_" class="st1" d="M66,140.1c1.2,0.1,2.2,0.9,3.3,1.6c2,1.3,4.2,1.7,6.5,1.2c1.2-0.3,2.5-0.5,3.8-0.3
				c2.1,0.4,3.4,1.6,3.9,3.5c0.5,1.8,0.1,3.5-1.4,4.8c-1.5,1.3-3.4,1.8-5.3,1c-0.6-0.2-1.2-0.5-1.7-0.9c-2.5-1.7-5.3-2.2-8.3-1.5
				c-1.3,0.3-2.6,0.4-4-0.2c-2.4-1.1-3.5-3.5-2.7-6C60.9,140.9,63.3,139.6,66,140.1z M66.3,145.1c0.2-0.8-0.3-1.6-1.2-1.8
				c-1-0.2-1.6,0.3-1.8,1.2c-0.2,0.8,0.2,1.5,1.1,1.7C65.2,146.5,66.1,145.9,66.3,145.1z M77.3,146.8c-0.3,0.9,0.2,1.8,1,1.9
				c1,0.2,1.6-0.3,1.8-1.1c0.2-0.8,0-1.5-1-1.8C78.2,145.7,77.6,146.1,77.3,146.8z"/>
			<path id="XMLID_35_" class="st1" d="M56.6,139.6c-0.4,2.2-1.5,3.6-3.5,4.2c-1.9,0.6-3.6,0.1-5-1.3c-0.7-0.7-1.2-1.5-1.7-2.3
				c-1.4-2.4-3.6-3.7-6.4-4.2c-2.4-0.5-4.1-1.8-4.6-4.2c-0.4-2,0.5-3.7,2.1-4.8c1.6-1.1,3.5-1.2,5.3-0.2c1.2,0.7,2.1,1.7,2.7,2.9
				c1.4,2.5,3.5,3.8,6.3,4.4c1.1,0.2,2.1,0.7,3.1,1.4C56.3,136.7,56.5,138.1,56.6,139.6z M51.4,140.7c0.8,0.1,1.6-0.6,1.7-1.4
				c0-0.8-0.7-1.6-1.4-1.6c-0.9,0-1.4,0.5-1.6,1.4C50,139.9,50.6,140.6,51.4,140.7z M40.3,129.5c-0.9,0-1.5,0.4-1.6,1.4
				c-0.1,0.9,0.4,1.4,1.3,1.5c0.9,0.1,1.7-0.5,1.7-1.3C41.9,130.4,41.2,129.6,40.3,129.5z"/>
			<path id="XMLID_31_" class="st1" d="M148,106.7c-0.3,0.8-0.8,1.4-1.4,1.9c-2.6,2.1-3.8,4.8-3.8,8.2c0,2-0.7,3.6-2.6,4.7
				c-1.9,1.1-4.4,0.8-6-0.8c-1.7-1.7-2-4.3-0.6-6.1c0.6-0.8,1.3-1.5,2-2.1c1.8-1.6,2.7-3.7,2.8-6c0-0.9,0-1.8,0.2-2.7
				c0.4-2,1.8-3.2,3.8-3.7c1.9-0.5,3.6,0,4.9,1.5C148.6,103,148.8,104.8,148,106.7z M145,105.3c0.2-0.8,0.1-1.6-0.8-2
				c-0.9-0.4-1.7-0.1-2.1,0.7c-0.4,0.8-0.1,1.6,0.7,2C143.7,106.4,144.4,106,145,105.3z M136.3,116.6c-0.3,0.7,0.1,1.7,0.9,2
				c0.9,0.3,1.6,0,2-0.8c0.4-0.9,0-1.6-0.9-1.9C137.5,115.5,136.8,115.8,136.3,116.6z"/>
			<path id="XMLID_27_" class="st1" d="M92.2,151.7c-3.2-0.9-4.6-3.1-4.3-5.6c0.3-2.2,2.3-4,4.7-4.1c1.2-0.1,2.3,0,3.4,0.2
				c2.1,0.3,3.9-0.4,5.6-1.6c1.4-1,2.7-2,4.6-2.1c2.2-0.2,4.3,1.1,5,3.4c0.7,2.1-0.1,4.1-2,5.4c-1.5,1-3,1.1-4.6,0.8
				c-3.1-0.5-5.7,0.3-8.1,2.2C95.2,151.4,93.5,152,92.2,151.7z M107.9,144c0.3-1.2-0.1-1.9-1-2.1c-1-0.3-1.6,0.1-1.9,1
				c-0.3,0.8,0.3,1.7,1.2,1.9C107.1,144.9,107.7,144.6,107.9,144z M94.4,147c0.2-0.6-0.4-1.5-1.1-1.7c-0.8-0.2-1.7,0.4-1.8,1.2
				c-0.1,0.8,0.2,1.5,1.1,1.7C93.4,148.5,94,148,94.4,147z"/>
			<g id="XMLID_22_">
				<path id="XMLID_23_" class="st1" d="M19.3,107.6c0.1-2.6,1.9-4.5,4.3-4.8c2.6-0.3,4.9,1.3,5.5,3.9c0.2,0.8,0.3,1.6,0.4,2.5
					c0.2,2.5,1.4,4.5,3.4,6.1c2.8,2.1,3.4,5.1,1.7,7.5c-1.1,1.6-3.2,2.4-5.1,1.9c-1.9-0.5-3.3-1.7-3.8-3.7c-0.2-1.1-0.4-2.2-0.5-3.3
					c-0.2-1.9-1.1-3.4-2.5-4.6c-0.7-0.6-1.4-1.3-2.1-2C19.6,110,19.2,108.8,19.3,107.6z M25.8,107.8c0.1-0.8-0.6-1.6-1.4-1.6
					c-1,0-1.5,0.5-1.6,1.4c-0.1,0.9,0.4,1.4,1.3,1.5C24.9,109.3,25.7,108.6,25.8,107.8z M30.7,121.4c0.8,0,1.4-0.5,1.5-1.4
					c0.1-0.8-0.6-1.5-1.4-1.6c-1-0.1-1.4,0.5-1.5,1.3C29.1,120.6,29.7,121.3,30.7,121.4z"/>
			</g>
			<path id="XMLID_18_" class="st1" d="M134.1,129.8c-0.4,1.7-2,2.6-3.7,3.1c-3.3,0.9-5.4,3-6.9,5.9c-1.8,3.7-6.6,3.9-8.8,0.6
				c-1.5-2.2-0.7-5.6,1.8-6.8c1.2-0.6,2.5-1,3.7-1.5c1.9-0.7,3-2.2,3.9-3.8c0.5-0.9,1.1-1.9,1.8-2.7c1.7-1.7,4.2-2.1,6.3-0.9
				C134.2,125,135,127.3,134.1,129.8z M130.9,128.5c0.3-0.9,0-1.7-0.9-2c-0.9-0.3-1.5,0.1-1.9,0.9c-0.4,0.7,0.1,1.7,0.9,2
				C129.9,129.7,130.6,129.3,130.9,128.5z M120.2,137.3c0.3-0.8-0.2-1.6-1-1.8c-0.9-0.2-1.5,0.2-1.9,0.9c-0.3,0.7,0.2,1.7,0.9,1.9
				C119.1,138.6,120,138.1,120.2,137.3z"/>
		</g>
	</g>
</g>
</svg>
