<?xml version="1.0" encoding="utf-8"?>
<!-- Generator: Adobe Illustrator 19.0.0, SVG Export Plug-In . SVG Version: 6.00 Build 0)  -->
<svg version="1.1" id="Livello_1" xmlns="http://www.w3.org/2000/svg" xmlns:xlink="http://www.w3.org/1999/xlink" x="0px" y="0px"
	 viewBox="0 0 65 65" style="enable-background:new 0 0 65 65;" xml:space="preserve">
<style type="text/css">
	.st0{fill:url(#XMLID_2_);}
	.st1{fill:url(#XMLID_3_);}
</style>
<g id="XMLID_76_">
	<linearGradient id="XMLID_2_" gradientUnits="userSpaceOnUse" x1="32.8643" y1="1.9018" x2="32.8643" y2="63.9018">
		<stop  offset="0" style="stop-color:#ED944A"/>
		<stop  offset="1" style="stop-color:#F63D78"/>
	</linearGradient>
	<path id="XMLID_84_" class="st0" d="M32.9,19.8c4.4,0,8.1-3.8,8.1-8.4S37.3,3,32.9,3s-8.1,3.8-8.1,8.4S28.4,19.8,32.9,19.8z
		 M32.9,7c2.2,0,4.1,2,4.1,4.4s-1.8,4.4-4.1,4.4s-4.1-2-4.1-4.4S30.6,7,32.9,7z"/>
	<linearGradient id="XMLID_3_" gradientUnits="userSpaceOnUse" x1="32.5" y1="1.9018" x2="32.5" y2="63.9018">
		<stop  offset="0" style="stop-color:#ED944A"/>
		<stop  offset="1" style="stop-color:#F63D78"/>
	</linearGradient>
	<path id="XMLID_77_" class="st1" d="M58,23.4c-2-1.8-4.2-1.8-4.5-1.7c-0.1,0-0.1,0-0.2,0c2.2-1.3,3.6-3.8,3.6-6.5
		c0-4.2-3.2-7.6-7.2-7.6s-7.2,3.4-7.2,7.6s3.2,7.6,7.2,7.6c0.9,0,1.8-0.2,2.6-0.5c0,0-0.1,0.1-0.1,0.1L49,25.7l-3.1-3.4
		c-0.7-0.8-2-0.9-2.8-0.2c-0.4-0.7-0.8-1.3-1.3-1.7c-1.9-1.8-4.1-1.7-4.3-1.7c-0.5,0-1,0.3-1.3,0.6L32.7,23l-3.5-3.6
		c-0.3-0.4-0.8-0.6-1.3-0.6c-0.2,0-2.4-0.1-4.3,1.7c-0.6,0.6-1.1,1.2-1.5,2c-0.1-0.1-0.1-0.2-0.2-0.2c-0.8-0.8-2.1-0.7-2.8,0.1
		L16,25.7l-3.1-3.4c0,0-0.1-0.1-0.1-0.1c0.8,0.3,1.7,0.5,2.6,0.5c4,0,7.2-3.4,7.2-7.6s-3.2-7.6-7.2-7.6S8.1,11,8.1,15.2
		c0,2.8,1.5,5.2,3.6,6.5c-0.1,0-0.1,0-0.2,0c-0.3,0-2.5-0.1-4.5,1.7c-1.7,1.6-2.5,4-2.5,7.3v9c0,1.4,0.5,2.8,1.5,3.9l2.2,2.5l1.2,10
		c0,0.6,0.1,1.7,1,2.8c1,1.2,2.7,1.8,4.9,1.8c5.2,0,6.7-2.3,7-2.8c0.1-0.2,0.2-0.4,0.2-0.7l1.6-11.1c0.1-0.4,0-0.7-0.1-1l0.5,0.6
		l1.2,11.4c0,0.6,0.1,1.9,1.2,3.1c1.1,1.2,2.7,1.8,4.8,1.8c0.3,0,0.7,0,1,0c0.3,0,0.6,0,1,0c2.1,0,3.7-0.6,4.8-1.8
		c1.1-1.2,1.2-2.5,1.2-3.1l1.2-11l1.6,11.1c0,0.2,0.1,0.5,0.2,0.7c0.3,0.5,1.8,2.8,7,2.8c2.2,0,3.9-0.6,4.9-1.8c0.9-1,1-2.2,1-2.8
		l1.2-10l2.2-2.5c1-1.1,1.5-2.5,1.5-3.9v-9C60.5,27.5,59.6,25,58,23.4z M49.7,18.7c-1.8,0-3.2-1.6-3.2-3.6c0-2,1.5-3.6,3.2-3.6
		s3.2,1.6,3.2,3.6C52.9,17.1,51.4,18.7,49.7,18.7z M15.3,11.6c1.8,0,3.2,1.6,3.2,3.6c0,2-1.5,3.6-3.2,3.6s-3.2-1.6-3.2-3.6
		C12.1,13.2,13.6,11.6,15.3,11.6z M22.5,43.9c-1.1-0.2-2.1,0.6-2.3,1.7L18.7,56c-0.4,0.3-1.4,0.7-3.4,0.7c-1.2,0-1.8-0.3-1.9-0.5
		c0-0.2,0-0.2,0-0.4l-1.3-10.8c0-0.4-0.2-0.8-0.5-1.1L9,41c-0.3-0.4-0.5-0.8-0.5-1.3v-9c0-2,0.4-3.5,1.2-4.3
		c0.3-0.3,0.6-0.5,0.9-0.6l3.9,4.2c0.8,0.8,2.2,0.8,2.9,0l3.6-3.9c-0.1,0.8-0.2,1.6-0.2,2.5v10.1c0,1.5,0.5,3,1.4,4.2l1,1.3
		C23.1,44.1,22.8,43.9,22.5,43.9z M40.5,38.7c0,0.6-0.2,1.2-0.6,1.7l-2.6,3.3c-0.2,0.3-0.4,0.6-0.4,1l-1.3,12.1c0,0.1,0,0.3,0,0.4
		c0,0,0,0.2-0.1,0.3C35.4,57.7,35,58,33.7,58c-0.3,0-0.6,0-0.8,0c-0.1,0-0.1,0-0.2,0s-0.1,0-0.2,0c-0.3,0-0.5,0-0.8,0
		c-1.3,0-1.7-0.3-1.8-0.4c-0.1-0.1-0.1-0.3-0.2-0.3c0,0,0,0,0,0c0-0.2,0-0.2,0-0.4l-1.3-12.1c0-0.4-0.2-0.7-0.4-1l-2.6-3.3
		c-0.4-0.5-0.6-1.1-0.6-1.7V28.6c0-3.1,0.8-4.5,1.4-5.2c0.3-0.3,0.5-0.4,0.8-0.5l4.2,4.4c0.4,0.4,0.9,0.6,1.5,0.6s1.1-0.2,1.5-0.6
		l4.2-4.4c0.2,0.1,0.5,0.2,0.7,0.5c0.7,0.6,1.5,2.1,1.5,5.3V38.7z M56.5,39.7c0,0.5-0.2,0.9-0.5,1.3L53.4,44
		c-0.3,0.3-0.4,0.7-0.5,1.1l-1.3,10.8c0,0.2-0.1,0.3,0,0.4c0,0-0.4,0.4-1.9,0.4c-2,0-3-0.4-3.4-0.7l-1.5-10.4
		c-0.2-1.1-1.2-1.8-2.3-1.7c-0.1,0-0.1,0-0.2,0.1l0.8-1c0.9-1.2,1.4-2.7,1.4-4.2V28.6c0-0.7,0-1.3-0.1-2l3.1,3.4
		c0.8,0.8,2.2,0.8,2.9,0l3.9-4.2c0.3,0.1,0.6,0.3,0.9,0.6c0.8,0.8,1.2,2.3,1.2,4.3V39.7z"/>
</g>
</svg>
