<?xml version="1.0" encoding="utf-8"?>
<!-- Generator: Adobe Illustrator 19.0.0, SVG Export Plug-In . SVG Version: 6.00 Build 0)  -->
<svg version="1.1" id="Livello_1" xmlns="http://www.w3.org/2000/svg" xmlns:xlink="http://www.w3.org/1999/xlink" x="0px" y="0px"
	 viewBox="0 0 19.5 19.5" style="enable-background:new 0 0 19.5 19.5;" xml:space="preserve">
<style type="text/css">
	.st0{fill:url(#XMLID_2_);}
	.st1{fill:url(#XMLID_3_);}
</style>
<g id="XMLID_32_">
	<g id="XMLID_234_">
		<linearGradient id="XMLID_2_" gradientUnits="userSpaceOnUse" x1="9.75" y1="4.5022" x2="9.75" y2="17.1738">
			<stop  offset="0" style="stop-color:#6B8BFF"/>
			<stop  offset="1" style="stop-color:#C77EF1"/>
		</linearGradient>
		<path id="XMLID_236_" class="st0" d="M15.7,5c-0.7-0.8-1.6-1.2-2.5-1.3c-1.4-0.1-2.6,0.6-3.4,1.7C9,4.4,7.8,3.7,6.4,3.8
			C5.4,3.8,4.5,4.3,3.8,5c-0.7,0.8-1,1.9-1,3C3,8.8,3.2,9.5,3.6,10.2c0.1,0.2,0.4,0.3,0.6,0.1c0.2-0.1,0.3-0.4,0.1-0.6
			C4,9.2,3.8,8.6,3.7,7.9C3.7,7.1,3.9,6.2,4.5,5.6C5,5,5.7,4.7,6.4,4.6c1.3-0.1,2.5,0.7,2.9,2l0.4,1.2l0.4-1.2c0.4-1.2,1.6-2,2.9-2
			c0.7,0,1.4,0.4,1.9,1c0.5,0.6,0.8,1.5,0.7,2.3c-0.1,1.3-0.8,2.2-2,3.4c-0.9,0.9-1.4,1.3-1.8,1.7c-0.5,0.4-0.9,0.8-1.7,1.6
			c-0.1,0.1-0.3,0.2-0.5,0.2h0c-0.2,0-0.4-0.1-0.5-0.2c-1.4-1.4-2-2-2.5-2.4c-0.2-0.2-0.4-0.3-0.6-0.6c-0.2-0.2-0.4-0.2-0.6,0
			c-0.2,0.2-0.2,0.4,0,0.6c0.2,0.2,0.4,0.4,0.6,0.6c0.5,0.4,1.1,1,2.5,2.4c0.3,0.3,0.7,0.5,1.1,0.5c0,0,0,0,0,0
			c0.4,0,0.8-0.2,1.1-0.5c0.7-0.7,1.2-1.1,1.6-1.5c0.5-0.4,1-0.9,1.9-1.8c1.1-1.1,2.1-2.2,2.2-4C16.7,6.9,16.4,5.8,15.7,5z"/>
		<linearGradient id="XMLID_3_" gradientUnits="userSpaceOnUse" x1="8.5633" y1="4.5022" x2="8.5633" y2="17.1738">
			<stop  offset="0" style="stop-color:#6B8BFF"/>
			<stop  offset="1" style="stop-color:#C77EF1"/>
		</linearGradient>
		<path id="XMLID_235_" class="st1" d="M7.2,11.4l0.7-0.9l0.9,1.9c0.1,0.2,0.2,0.3,0.4,0.3c0,0,0,0,0,0c0.2,0,0.3-0.1,0.4-0.3l1-2.9
			l0.8,1.8c0.1,0.2,0.2,0.3,0.4,0.3h1.5c0.2,0,0.4-0.2,0.4-0.4c0-0.2-0.2-0.4-0.4-0.4H12l-1.1-2.6c-0.1-0.2-0.2-0.3-0.4-0.3
			c-0.2,0-0.3,0.1-0.4,0.3l-1,2.9L8.4,9.5C8.3,9.3,8.2,9.2,8,9.2c-0.1,0-0.3,0-0.4,0.2l-1,1.3H3.9c-0.2,0-0.4,0.2-0.4,0.4
			c0,0.2,0.2,0.4,0.4,0.4h3C7,11.5,7.1,11.5,7.2,11.4z"/>
	</g>
</g>
</svg>
