<?xml version="1.0" encoding="utf-8"?>
<!-- Generator: Adobe Illustrator 19.0.0, SVG Export Plug-In . SVG Version: 6.00 Build 0)  -->
<svg version="1.1" id="Livello_1" xmlns="http://www.w3.org/2000/svg" xmlns:xlink="http://www.w3.org/1999/xlink" x="0px" y="0px"
	 viewBox="0 0 65 65" style="enable-background:new 0 0 65 65;" xml:space="preserve">
<style type="text/css">
	.st0{fill:url(#XMLID_2_);}
</style>
<linearGradient id="XMLID_2_" gradientUnits="userSpaceOnUse" x1="32.5" y1="3.7" x2="32.5" y2="64.3886">
	<stop  offset="0" style="stop-color:#ED944A"/>
	<stop  offset="1" style="stop-color:#F63D78"/>
</linearGradient>
<path id="XMLID_3_" class="st0" d="M53.1,40.7c-3-4.1-7.3-7.3-12.1-9c0.4-0.3,0.7-0.6,1.1-0.9l0.2-0.2c2.6-2.6,4.1-6.1,4.1-9.8
	c0-1.3-0.2-2.5-0.5-3.6c0,0,0,0,0,0c0,0,0-0.1,0-0.1c-0.1-0.3-0.2-0.5-0.3-0.8c0-0.1-0.1-0.2-0.1-0.3c-0.1-0.3-0.2-0.5-0.3-0.8
	c0-0.1-0.1-0.2-0.1-0.2c-0.1-0.3-0.3-0.6-0.4-0.9c0,0,0,0,0,0c-0.3-0.6-0.7-1.2-1.1-1.7c0-0.1-0.1-0.1-0.1-0.2
	c-0.1-0.2-0.3-0.3-0.4-0.5c-0.1-0.2-0.3-0.3-0.4-0.5c-0.1-0.1-0.1-0.1-0.2-0.2c-0.1-0.1-0.2-0.2-0.3-0.2c-0.2-0.1-0.3-0.3-0.5-0.4
	c-0.2-0.2-0.3-0.3-0.5-0.4c0,0,0,0-0.1-0.1l-0.1-0.1c-0.1-0.1-0.1-0.1-0.2-0.2c-0.3-0.2-0.5-0.4-0.8-0.6C39.7,9,39.6,9,39.5,8.9
	c-0.3-0.2-0.5-0.3-0.8-0.4c-0.2-0.1-0.3-0.1-0.5-0.2c-0.3-0.1-0.5-0.2-0.8-0.3c-0.2-0.1-0.4-0.1-0.6-0.2c-0.2-0.1-0.4-0.1-0.7-0.2
	c-0.2-0.1-0.5-0.1-0.7-0.2c-0.2,0-0.4-0.1-0.6-0.1c-0.3,0-0.5-0.1-0.8-0.1c-0.2,0-0.4,0-0.6,0c-0.3,0-0.5,0-0.8,0
	c-0.1,0-0.1,0-0.2,0c-0.2,0-0.4,0-0.6,0c-0.2,0-0.4,0-0.6,0c-0.4,0-0.8,0.1-1.2,0.2c-0.1,0-0.1,0-0.2,0c0,0,0,0,0,0
	c-0.3,0.1-0.6,0.1-0.8,0.2c-0.1,0-0.3,0.1-0.4,0.1c-0.3,0.1-0.5,0.2-0.8,0.3c-0.1,0-0.2,0-0.2,0.1c0,0-0.1,0-0.1,0c0,0,0,0,0,0
	c0,0,0,0-0.1,0c-1,0.4-1.9,0.9-2.8,1.5c0,0-0.1,0.1-0.1,0.1c-0.4,0.3-0.7,0.5-1.1,0.8c-0.1,0.1-0.2,0.2-0.4,0.3
	c-0.1,0.1-0.3,0.3-0.4,0.4l0,0c-0.1,0.1-0.2,0.2-0.3,0.3c-0.1,0.1-0.1,0.1-0.2,0.2c-0.1,0.1-0.1,0.1-0.2,0.2
	c-0.2,0.3-0.4,0.5-0.7,0.8c-0.1,0.1-0.2,0.2-0.2,0.3c-0.3,0.4-0.5,0.8-0.7,1.1c0,0,0,0.1-0.1,0.1c-0.5,0.9-0.9,1.9-1.2,2.9
	c0,0,0,0,0,0c0,0.1-0.1,0.2-0.1,0.4c-0.3,1.1-0.4,2.3-0.4,3.4c0,3.7,1.4,7.2,4.1,9.8c0.4,0.4,0.8,0.8,1.3,1.1
	c-4.8,1.7-9.1,4.9-12.1,9C8.7,45.1,7,50.3,7,55.8C7,57,8,58,9.2,58c0.8,0,1.5-0.4,1.9-1c0.4,0.6,1.1,1,1.9,1h4.7c0,0,0,0,0,0
	c0.2,0,0.4,0,0.5-0.1c0.1,0,0.1,0,0.2,0c0.1,0,0.3-0.1,0.4-0.2c0,0,0.1,0,0.1-0.1c0.1-0.1,0.3-0.2,0.4-0.3c0,0,0.1-0.1,0.1-0.1
	c0.1-0.1,0.2-0.2,0.2-0.3c0,0,0,0,0.1-0.1c0.4,0.7,1.1,1.2,2,1.2h25.8c0,0,0,0,0,0c0.2,0,0.3,0,0.5-0.1c0.1,0,0.1,0,0.2-0.1
	c0.1,0,0.2-0.1,0.3-0.1c0.1,0,0.1-0.1,0.2-0.1c0.1-0.1,0.2-0.1,0.3-0.2c0,0,0.1-0.1,0.1-0.1c0.1-0.1,0.2-0.2,0.3-0.4c0,0,0,0,0,0
	c0.4,0.6,1.1,1,1.9,1h4.7c1.2,0,2.2-1,2.2-2.2C58,50.3,56.3,45.1,53.1,40.7z M49.5,54.2c-0.1-0.6-0.1-1.1-0.2-1.7
	c-0.2-1.1-0.5-2.1-1-3.1c-0.5-1.1-1.8-1.7-2.9-1.2c-1.1,0.5-1.7,1.8-1.2,2.9l0,0c0.3,0.7,0.5,1.5,0.7,2.2c0,0,0,0.1,0,0.1h-7.9
	c0,0,0,0,0,0c0.3-0.5,0.3-1.1,0.1-1.7l-2.6-7.1c-0.1-0.2-0.2-0.4-0.4-0.6l2.2-2.2c0.9-0.9,0.9-2.3,0-3.1L35,37.4
	c0.6-0.1,1.2-0.2,1.7-0.3c1-0.3,2-0.6,3-1.1c3.9,1.4,7.3,4,9.8,7.4c2.2,3,3.5,6.5,3.9,10.2h-2.3C50.5,53.6,49.9,53.8,49.5,54.2z
	 M31.6,11.5c0.3,0,0.6,0,0.9,0c0.3,0,0.6,0,0.9,0c0.1,0,0.2,0,0.2,0c0.2,0,0.4,0.1,0.6,0.1c0.1,0,0.2,0,0.3,0.1
	c0.2,0,0.4,0.1,0.6,0.2c0.1,0,0.2,0,0.2,0.1c0.2,0.1,0.4,0.2,0.7,0.2c0,0,0.1,0,0.1,0.1c0.3,0.1,0.5,0.2,0.8,0.4c0,0,0,0,0,0
	c0.2,0.1,0.5,0.3,0.7,0.4c0.1,0,0.1,0.1,0.2,0.1c0.2,0.1,0.3,0.2,0.5,0.4c0.3,0.3,0.6,0.5,0.9,0.8c0.1,0.1,0.2,0.2,0.2,0.3
	c0.2,0.3,0.5,0.6,0.7,0.9c0,0,0.1,0.1,0.1,0.1h-6.1c-1,0-1.9-0.4-2.6-1.1c-0.7-0.7-1.1-1.6-1.1-2.6v-0.3c0,0,0.1,0,0.1,0
	c0,0,0,0,0,0c0.2,0,0.5-0.1,0.7-0.1C31.4,11.5,31.5,11.5,31.6,11.5z M23.1,19.9c1.9-0.2,3.7-1,5.1-2.3c0.1-0.1,0.1-0.1,0.1-0.2
	c0,0,0.1,0.1,0.1,0.1l0.1,0.1C30,19.1,32,20,34.2,20h7.7c0,0.3,0,0.6,0,0.9c0,2.5-1,4.8-2.7,6.6l-0.1,0.1c-1.8,1.8-4.1,2.8-6.7,2.8
	c-2.5,0-4.9-1-6.7-2.8c-1.8-1.8-2.8-4.1-2.8-6.7C23.1,20.6,23.1,20.2,23.1,19.9z M32,53.4l0.5-1.3l0.5,1.3c0,0.1,0.1,0.1,0.1,0.2
	h-1.2C32,53.5,32,53.4,32,53.4z M19.9,54.3c0-0.3,0.1-0.6,0.1-0.9c0.2-0.8,0.4-1.5,0.7-2.2c0.5-1.1-0.1-2.4-1.2-2.9
	c-1.1-0.5-2.4,0.1-2.9,1.2c-0.4,1-0.7,2-1,3.1c-0.1,0.3-0.1,0.7-0.1,1h-2.6c-0.5,0-1.1,0.2-1.4,0.5c0.3-3.9,1.7-7.6,4-10.7
	c2.5-3.4,5.9-5.9,9.8-7.4c1,0.5,2,0.8,3,1.1c0.6,0.1,1.1,0.3,1.7,0.3l-1.4,1.4c-0.9,0.9-0.9,2.3,0,3.1l2.2,2.2
	c-0.2,0.2-0.3,0.4-0.4,0.6l-2.6,7.1c-0.2,0.6-0.2,1.2,0.1,1.7h-6.4C20.9,53.6,20.3,53.8,19.9,54.3z"/>
</svg>
