<?xml version="1.0" encoding="utf-8"?>
<!-- Generator: Adobe Illustrator 19.0.0, SVG Export Plug-In . SVG Version: 6.00 Build 0)  -->
<svg version="1.1" id="Livello_1" xmlns="http://www.w3.org/2000/svg" xmlns:xlink="http://www.w3.org/1999/xlink" x="0px" y="0px"
	 viewBox="0 0 132.5 132.5" style="enable-background:new 0 0 132.5 132.5;" xml:space="preserve">
<style type="text/css">
	.st0{fill:url(#XMLID_4_);}
	.st1{fill:url(#XMLID_5_);}
	.st2{fill:url(#XMLID_7_);}
	.st3{fill:url(#XMLID_9_);}
</style>
<g id="XMLID_1_">
	<linearGradient id="XMLID_4_" gradientUnits="userSpaceOnUse" x1="81.655" y1="130.3615" x2="81.655" y2="2.9588">
		<stop  offset="0" style="stop-color:#36FAC6"/>
		<stop  offset="6.376290e-02" style="stop-color:#46F7BC"/>
		<stop  offset="0.4036" style="stop-color:#94E989"/>
		<stop  offset="0.6836" style="stop-color:#CEDE65"/>
		<stop  offset="0.8898" style="stop-color:#F2D74E"/>
		<stop  offset="1" style="stop-color:#FFD545"/>
	</linearGradient>
	<path id="XMLID_2_" class="st0" d="M78.1,49.5c0.9,0.8,0.7-1.1,0.9-1.6l3.5,2.1l-1.1,1.8l1.6,1l3.4-5.6l-1.6-1l-1.1,1.7L78,44.3
		c-0.3,0.5-0.5,0.9-0.8,1.4c0.1,0.9,0.2,2.1-0.3,3L78.1,49.5z"/>
	<linearGradient id="XMLID_5_" gradientUnits="userSpaceOnUse" x1="51.89" y1="130.3615" x2="51.89" y2="2.9588">
		<stop  offset="0" style="stop-color:#36FAC6"/>
		<stop  offset="6.376290e-02" style="stop-color:#46F7BC"/>
		<stop  offset="0.4036" style="stop-color:#94E989"/>
		<stop  offset="0.6836" style="stop-color:#CEDE65"/>
		<stop  offset="0.8898" style="stop-color:#F2D74E"/>
		<stop  offset="1" style="stop-color:#FFD545"/>
	</linearGradient>
	<path id="XMLID_6_" class="st1" d="M52.5,64.5c-0.1,0-0.1,0-0.1,0v0c-1,0.1-2,0.9-2.6,2.6c-0.5,1.2-0.7,2.5-0.3,3.4
		c-0.1-0.4-0.1-0.9,0.1-1.3c0.4-1,1.2-1.7,2-1.6c0.1,0,0.3,0.1,0.4,0.1c0.9,0.3,1.2,1.5,0.8,2.7c-0.2,0.5-0.4,0.9-0.8,1.2
		c0.9-0.4,1.8-1.2,2.4-2.4C55.3,66.9,54.1,64.6,52.5,64.5z"/>
	<linearGradient id="XMLID_7_" gradientUnits="userSpaceOnUse" x1="66.3549" y1="130.3615" x2="66.3549" y2="2.9588">
		<stop  offset="0" style="stop-color:#36FAC6"/>
		<stop  offset="6.376290e-02" style="stop-color:#46F7BC"/>
		<stop  offset="0.4036" style="stop-color:#94E989"/>
		<stop  offset="0.6836" style="stop-color:#CEDE65"/>
		<stop  offset="0.8898" style="stop-color:#F2D74E"/>
		<stop  offset="1" style="stop-color:#FFD545"/>
	</linearGradient>
	<path id="XMLID_8_" class="st2" d="M63.2,49.5c0.4-0.1,1.5,0.3,1.3-0.4c-0.5-1.8,2.7-1.8,1.9,0c-0.8,1.7-2.2,3.1-3.4,4.6
		c0.1,0.7,0.2,1.4,0.4,2.1l7.1-1.5c-0.1-0.8-0.3-1.5-0.4-2.3l-3.6,0.7c1.1-1.2,2.5-2.4,2.8-4.1c0.3-1.9-1.2-3.3-3-3.2
		c-0.1,0,0,0,0,0v0c0,0-0.6,0-0.7,0c-1.6,0.3-3.2,1.6-3.3,3.3C61.9,49.7,62.6,49.5,63.2,49.5z"/>
	<linearGradient id="XMLID_9_" gradientUnits="userSpaceOnUse" x1="66.2432" y1="130.3615" x2="66.2432" y2="2.9588">
		<stop  offset="0" style="stop-color:#36FAC6"/>
		<stop  offset="6.376290e-02" style="stop-color:#46F7BC"/>
		<stop  offset="0.4036" style="stop-color:#94E989"/>
		<stop  offset="0.6836" style="stop-color:#CEDE65"/>
		<stop  offset="0.8898" style="stop-color:#F2D74E"/>
		<stop  offset="1" style="stop-color:#FFD545"/>
	</linearGradient>
	<path id="XMLID_15_" class="st3" d="M66.2,1.2c-35.9,0-65,29.1-65,65c0,35.9,29.1,65,65,65s65-29.1,65-65
		C131.2,30.3,102.1,1.2,66.2,1.2z M73.8,46.8c0.6-3.4,3.7-6.1,7.2-6.2c0.2,0,0.5,0,0.7,0c1.8,0.1,3.6,0.8,5,2
		c2.7,2.4,3.3,6.7,1.4,9.7c-1.8,3-5.8,4.4-9.1,3.2C75.4,54.4,73,50.5,73.8,46.8z M58.6,47.5c1.2-3.2,4.3-5.6,7.7-5.8
		c0.2,0,0.5,0,0.7,0c1.8,0,4,0.7,5.5,2c-3.9,6.5,1.6,11.7,1.7,11.7c-2.3,3.6-7.5,5-11.3,3C59.1,56.5,57.1,51.6,58.6,47.5z
		 M89.6,69.7c-0.5,1-1.4,1.8-2.4,2.3c-0.4,0.2-0.9,0.3-1.3,0.4c0.1,0.5,0.1,1.1,0.1,1.6c0,4.5-1.6,8.3-5.2,11.3
		c0.5,1.6,0.3,3.5,0.7,5.2c0.1,0.5,0,1-0.2,1.4c-0.2,0.4-0.6,0.7-1,1c-0.9,0.5-2,0.8-3.2,0.9c-1.2,0.1-2.5,0-3.5-0.4
		c-1-0.4-1.7-1.1-1.8-2.1l-0.2-1.2c-2.2,0.6-4.1,0.9-6.5,0.9c-1.8,0-2.9-0.3-4.9-0.6v1.3c0,1.1-1,1.6-2.3,1.9
		c-1,0.3-2.4,0.4-3.7,0.2c-1.2-0.1-2.7-0.3-3.5-0.9c-0.8-0.6-1.3-0.9-1.2-2.1l0.5-4.3c-1.6-1.4-3.1-2.5-4.3-4.5h-3.5
		c-2.3,0-3.3-1.8-3.6-4l-0.1-3.3c-0.3-2.3,1.1-4.1,3.4-4.1l2.7-0.1c0.7-3.4,2.3-5.2,4.7-7.5c-0.4-1.1-1-2.2-1.3-3.2
		c-0.7-1.7-0.4-3,1.1-3.3c0.2,0,0.5,0,0.8,0c1.7,0,3.9,0.7,5.4,2.3c1.3-0.6,2.4-1,3.5-1.2c1.7,2.6,4.6,4.3,7.9,4.3
		c2.7,0,5.2-1.2,6.9-3c5,1.9,8.9,5.3,10.8,9.6c0.2,0,0.5,0,0.7-0.1c0.2-0.1,0.5-0.3,0.6-0.5c0.2-0.3,0.2-0.9,0-1.2
		c-0.2-0.3-0.7-0.6-1-0.7c-2.3-0.5-1.4-4.4,0.4-4c1.8,0.2,3.3,1.2,4.2,2.8C90.5,66.2,90.5,68.1,89.6,69.7z"/>
</g>
</svg>
