<?xml version="1.0" encoding="utf-8"?>
<!-- Generator: Adobe Illustrator 19.0.0, SVG Export Plug-In . SVG Version: 6.00 Build 0)  -->
<svg version="1.1" id="Livello_1" xmlns="http://www.w3.org/2000/svg" xmlns:xlink="http://www.w3.org/1999/xlink" x="0px" y="0px"
	 viewBox="0 0 19.5 19.5" style="enable-background:new 0 0 19.5 19.5;" xml:space="preserve">
<style type="text/css">
	.st0{fill:url(#XMLID_2_);}
	.st1{fill:url(#XMLID_3_);}
</style>
<g id="XMLID_5_">
	<linearGradient id="XMLID_2_" gradientUnits="userSpaceOnUse" x1="9.5482" y1="7.6173" x2="9.5482" y2="15.1829">
		<stop  offset="0" style="stop-color:#6B8BFF"/>
		<stop  offset="1" style="stop-color:#C77EF1"/>
	</linearGradient>
	<path id="XMLID_6_" class="st0" d="M12,9.3c-0.4-0.3-0.5-1-0.8-1.4c-0.1-0.2-0.3-0.3-0.5-0.4c-0.3-0.1-0.7,0-1.1-0.1
		C9.2,7.4,8.9,7,8.4,7c0,0-0.1,0-0.1,0C8.2,7,8.1,7,8,7.1C7.5,7.3,6.9,7.5,6.6,7.9C6.3,8.4,6.2,9.1,6.5,9.6C6.7,10,7.4,9.9,7.9,10
		c0.3,0.1,0.7,0.1,1,0.3c0.3,0.3,0.3,0.8,0.4,1.2c0.1,0.5-0.1,1,0,1.4c0.1,0.4,0.2,1,0.6,1.1c0.5,0.1,0.8-0.6,1.2-0.9
		c0.3-0.3,0.6-0.6,0.8-1c0.2-0.4,0-0.9,0.2-1.3c0.2-0.5,0.9-0.8,0.8-1.2C12.7,9.4,12.2,9.5,12,9.3z"/>
	<linearGradient id="XMLID_3_" gradientUnits="userSpaceOnUse" x1="9.75" y1="4.86" x2="9.75" y2="17.5316">
		<stop  offset="0" style="stop-color:#6B8BFF"/>
		<stop  offset="1" style="stop-color:#C77EF1"/>
	</linearGradient>
	<path id="XMLID_10_" class="st1" d="M9.7,3.8c-3.3,0-6,2.7-5.9,6c0,3.3,2.7,6,6,5.9c3.3,0,6-2.7,5.9-6C15.7,6.4,13,3.7,9.7,3.8z
		 M9.8,14.9c-1.4,0-2.6-0.5-3.5-1.4c-0.1-0.3,0.2-0.8,0.1-1c-0.1-0.5-0.5-1.3-0.8-1.7c-0.2-0.4-0.6,0-0.7,0c-0.1,0-0.1,0-0.1,0
		c-0.1-0.3-0.1-0.7-0.1-1c0-2.5,1.8-4.7,4.3-5.1C8.8,4.7,8.8,4.8,8.8,5c0.1,0.3,0.7-0.3,0.8-0.1c0.1,0.2-0.3,0.3-0.5,0.4
		C8.6,5.6,7.7,5.5,7.6,6c0,0.2,0.3,0.5,0.5,0.5c0.4,0.1,0.7-0.4,1.1-0.4c0.4,0,0.7,0.4,1.1,0.3C10.5,6.4,10.5,6,10.7,6
		c0.2,0,0.5,0.1,0.6,0.3c0,0.2-0.5,0.2-0.5,0.4c0,0.3,0.5,0.2,0.7,0.4c0.1,0.1,0.2,0.3,0.3,0.4C12,7.8,12.2,8,12.4,8.3
		c0.1,0.2,0.2,0.4,0.3,0.5c0.2,0.2,0.6,0.2,0.9,0.3c0.3,0.1,0.5,0.5,0.8,0.4c0.2-0.2,0.4-0.5,0.5-0.8c0.1,0.3,0.1,0.6,0.1,0.9
		C14.9,12.6,12.6,14.9,9.8,14.9z"/>
</g>
</svg>
