<?xml version="1.0" encoding="utf-8"?>
<!-- Generator: Adobe Illustrator 19.0.0, SVG Export Plug-In . SVG Version: 6.00 Build 0)  -->
<svg version="1.1" id="Livello_1" xmlns="http://www.w3.org/2000/svg" xmlns:xlink="http://www.w3.org/1999/xlink" x="0px" y="0px"
	 viewBox="0 0 132.5 132.5" style="enable-background:new 0 0 132.5 132.5;" xml:space="preserve">
<style type="text/css">
	.st0{fill:url(#XMLID_2_);}
</style>
<linearGradient id="XMLID_2_" gradientUnits="userSpaceOnUse" x1="66.2432" y1="10.529" x2="66.2432" y2="128.3109">
	<stop  offset="0" style="stop-color:#4568DC"/>
	<stop  offset="1" style="stop-color:#C77EF1"/>
</linearGradient>
<path id="XMLID_10_" class="st0" d="M66.2,1.2c-35.9,0-65,29.1-65,65c0,35.9,29.1,65,65,65s65-29.1,65-65
	C131.2,30.3,102.1,1.2,66.2,1.2z M52.3,86.6c0,0.9-1.5,2.4-2.4,2.4h-6.3c-0.8,0-1.4-1.5-1.4-2.4V76.4c0-0.9,0.5-1.4,1.4-1.4h6.3
	c0.8,0,2.4,0.5,2.4,1.4V86.6z M64.3,86.6c0,0.9-1.6,2.4-2.4,2.4h-6.3c-0.8,0-0.3-1.5-0.3-2.4V67.3c0-0.9-0.5-1.3,0.3-1.3h6.3
	c0.8,0,2.4,0.4,2.4,1.3V86.6z M74.3,86.6c0,0.9,0.5,2.4-0.4,2.4h-6.4c-0.8,0-1.2-1.5-1.2-2.4V72.5c0-0.9,0.4-1.5,1.2-1.5H74
	c0.8,0,0.4,0.6,0.4,1.5V86.6z M86.3,86.6c0,0.9,0.3,2.4-0.5,2.4h-6.6c-0.8,0-1.8-1.5-1.8-2.4V60.7c0-0.9,1-1.7,1.8-1.7h6.6
	c0.8,0,0.5,0.8,0.5,1.7V86.6z M86.3,56.3c0,0.7-0.3,0.9-0.7,0.5l-4-4.2L68.3,66c-0.3,0.3-0.6,0.6-1.2,0l-7.6-7.7L45.8,71.9
	c-0.5,0.4-0.9,0.3-1.3,0l-4-4c-0.4-0.4-0.5-1,0-1.4l18.1-18.1c0.7-0.7,1.4-0.4,1.8,0l7.4,7.5l8.7-8.6l-4.2-4.7
	C71.8,42,72.1,41,72.8,41h13.2c0.9,0,0.4,1.3,0.4,2.1V56.3z"/>
</svg>
