<?xml version="1.0" encoding="utf-8"?>
<!-- Generator: Adobe Illustrator 19.0.0, SVG Export Plug-In . SVG Version: 6.00 Build 0)  -->
<svg version="1.1" id="Livello_1" xmlns="http://www.w3.org/2000/svg" xmlns:xlink="http://www.w3.org/1999/xlink" x="0px" y="0px"
	 viewBox="0 0 19.5 19.5" style="enable-background:new 0 0 19.5 19.5;" xml:space="preserve">
<style type="text/css">
	.st0{fill:url(#XMLID_2_);}
</style>
<linearGradient id="XMLID_2_" gradientUnits="userSpaceOnUse" x1="-25.6681" y1="68.1951" x2="-25.6681" y2="78.6828" gradientTransform="matrix(0.9946 0.1041 -0.1041 0.9946 43.157 -61.306)">
	<stop  offset="0" style="stop-color:#6B8BFF"/>
	<stop  offset="1" style="stop-color:#C77EF1"/>
</linearGradient>
<path id="XMLID_74_" class="st0" d="M18.4,11.1c0-1.8-1.6-3.3-3.4-3.2c-0.4,0-0.8,0.1-1.1,0.2l-0.7-1.3l-0.4-1L13,5.5
	c0.1-0.1,0.1-0.3,0.1-0.5c-0.1-0.2-0.2-0.3-0.4-0.2l-3,0.1c-0.2,0-0.4,0.2-0.4,0.4c0,0.2,0.2,0.4,0.4,0.4l2.2-0.1c0,0,0,0.1,0,0.1
	l0.3,0.8c-0.1,0-0.1,0-0.2,0L6.6,6.7L6.3,6.2L7.2,6c0.2,0,0.3-0.2,0.3-0.4c0-0.2-0.2-0.4-0.4-0.4l-2.2,0c-0.1,0-0.2,0.1-0.3,0.1
	C4.5,5.4,4.5,5.5,4.5,5.7l0.1,0.5c0,0.1,0.1,0.2,0.2,0.3c0.1,0,0.1,0.1,0.2,0.1c0,0,0.1,0,0.1,0l0.4-0.1l0.4,0.7L5.3,8.2
	C5,8.1,4.7,8.1,4.3,8.1c-0.9,0-1.7,0.4-2.3,1c-0.6,0.6-0.9,1.5-0.9,2.4c0,0.9,0.4,1.7,1,2.3c0.5,0.5,1.2,0.8,1.9,0.9
	c0.1,0,0.3,0,0.4,0c0.9,0,1.7-0.4,2.3-1c0.5-0.5,0.8-1.2,0.9-1.9C7.8,12,7.9,12.2,8,12.3c0.2,0.2,0.5,0.3,0.8,0.4c0.1,0,0.1,0,0.2,0
	c0.4,0,0.7-0.2,0.9-0.4c0.2-0.3,0.4-0.6,0.4-0.9c0-0.2,0-0.3-0.1-0.5l2.7-2.2C12.9,8.5,13,8.4,13,8.3l0.1,0.2
	c-0.8,0.6-1.4,1.6-1.4,2.8c0,0.9,0.4,1.7,1,2.3c0.5,0.5,1.2,0.8,1.9,0.9c0.1,0,0.3,0,0.4,0c0.9,0,1.7-0.4,2.3-1S18.4,12,18.4,11.1z
	 M6.3,8l1.5,2.6c-0.1,0.1-0.1,0.2-0.2,0.3c-0.1-0.7-0.5-1.4-1-1.9C6.5,8.8,6.3,8.7,6.1,8.5L6.3,8z M5.7,9.3C5.8,9.4,6,9.5,6.1,9.6
	c0.4,0.4,0.6,0.8,0.7,1.3l-2,0L5.7,9.3z M6.2,13.1c-0.5,0.5-1.1,0.8-1.7,0.8c-1.4,0-2.5-1.1-2.5-2.4c0-0.7,0.2-1.3,0.7-1.8
	c0.5-0.5,1.1-0.8,1.7-0.8c0.1,0,0.2,0,0.3,0c0.1,0,0.2,0,0.3,0l-1.1,2.2c-0.1,0.1-0.1,0.3,0,0.4c0.1,0.1,0.2,0.2,0.3,0.2
	c0,0,0,0,0.1,0l2.6-0.1C6.8,12.3,6.6,12.7,6.2,13.1z M9.2,11.7c-0.1,0.1-0.2,0.1-0.3,0.1c-0.1,0-0.2,0-0.3-0.1
	c-0.1-0.1-0.1-0.2-0.1-0.3c0-0.1,0-0.2,0.1-0.3c0.1-0.1,0.2-0.1,0.3-0.1c0,0,0,0,0.1,0c0.1,0,0.2,0.1,0.3,0.1
	c0.1,0.1,0.1,0.2,0.1,0.3S9.3,11.6,9.2,11.7z M12.3,7.9l-2.7,2.2C9.3,10,8.9,9.9,8.5,10L7,7.5l5-0.1c0.2,0,0.3,0.2,0.3,0.2
	C12.4,7.6,12.4,7.8,12.3,7.9z M16.9,12.9c-0.5,0.5-1.1,0.8-1.7,0.8c-0.7,0-1.3-0.2-1.8-0.7s-0.8-1.1-0.8-1.7c0-0.8,0.3-1.5,0.9-2
	l1.2,2.2c0.1,0.1,0.2,0.2,0.3,0.2c0.1,0,0.2,0,0.2,0c0.2-0.1,0.3-0.4,0.2-0.6l-1.2-2.2c0.2-0.1,0.5-0.1,0.8-0.1c0.1,0,0.2,0,0.3,0
	c1.2,0.1,2.2,1.1,2.2,2.4C17.6,11.8,17.3,12.4,16.9,12.9z"/>
</svg>
