<?xml version="1.0" encoding="utf-8"?>
<!-- Generator: Adobe Illustrator 19.0.0, SVG Export Plug-In . SVG Version: 6.00 Build 0)  -->
<svg version="1.1" id="Livello_1" xmlns="http://www.w3.org/2000/svg" xmlns:xlink="http://www.w3.org/1999/xlink" x="0px" y="0px"
	 viewBox="0 0 132.5 132.5" style="enable-background:new 0 0 132.5 132.5;" xml:space="preserve">
<style type="text/css">
	.st0{fill:url(#XMLID_3_);}
</style>
<linearGradient id="XMLID_3_" gradientUnits="userSpaceOnUse" x1="66.2432" y1="16.7195" x2="66.2432" y2="131.2433">
	<stop  offset="0" style="stop-color:#C77EF1"/>
	<stop  offset="1" style="stop-color:#36FAC6"/>
</linearGradient>
<path id="XMLID_5_" class="st0" d="M66.2,1.2c-35.9,0-65,29.1-65,65c0,35.9,29.1,65,65,65c35.9,0,65-29.1,65-65
	C131.2,30.3,102.1,1.2,66.2,1.2z M64.6,87c-10.7,1.9-25.1-0.5-25.3-7.6c-0.2-4.7,3-10.3,6.3-13.7c1.7-1.7,3.6-3.1,5.8-4
	c-2.6-2-4.4-5.2-4.4-8.8c0-6.2,4.9-11.3,11-11.3c6,0,11,5.1,11,11.3c0,3.6-1.7,6.8-4.3,8.8c1.8,0.8,3.5,1.8,5,3.1
	c0,0.3-0.1,0.6-0.1,0.9c0,2.5,0.9,4.6,2.2,6.4c-0.8,0.6-1.7,1-2.4,1.7c-3,3.1-4.9,7.1-4.8,11.7C64.4,86,64.5,86.6,64.6,87z
	 M67.4,85.4c0-3.8,1.4-6.9,4-9.6c1.3-1.4,2.9-2.4,4.6-3.2c-2.1-1.6-3.5-4.2-3.5-7.1c0-4.9,3.9-9,8.7-9c4.8,0,8.8,4.1,8.8,9
	c0,2.9-1.4,5.5-3.5,7.1c1.7,0.7,3.3,1.7,4.6,3c2.6,2.7,4.1,5.8,4.1,9.5C95.3,93.1,67.4,93.4,67.4,85.4z"/>
</svg>
