<?xml version="1.0" encoding="utf-8"?>
<!-- Generator: Adobe Illustrator 19.0.0, SVG Export Plug-In . SVG Version: 6.00 Build 0)  -->
<svg version="1.1" id="Livello_1" xmlns="http://www.w3.org/2000/svg" xmlns:xlink="http://www.w3.org/1999/xlink" x="0px" y="0px"
	 viewBox="0 0 132.5 132.5" style="enable-background:new 0 0 132.5 132.5;" xml:space="preserve">
<style type="text/css">
	.st0{fill:url(#XMLID_7_);}
	.st1{fill:url(#XMLID_8_);}
</style>
<g id="XMLID_1_">
	<linearGradient id="XMLID_7_" gradientUnits="userSpaceOnUse" x1="84.1838" y1="63.2615" x2="84.1838" y2="73.8329">
		<stop  offset="0" style="stop-color:#ED944A"/>
		<stop  offset="1" style="stop-color:#F63D78"/>
	</linearGradient>
	<polygon id="XMLID_2_" class="st0" points="85.2,61.8 82.2,61.8 82.2,66.8 78.2,66.8 78.2,69.8 82.2,69.8 82.2,73.8 86,73.8 
		85.9,69.6 90.2,69.7 90.2,66.8 85.2,66.8 	"/>
	<linearGradient id="XMLID_8_" gradientUnits="userSpaceOnUse" x1="66.2432" y1="16.7195" x2="66.2432" y2="131.2433">
		<stop  offset="0" style="stop-color:#ED944A"/>
		<stop  offset="1" style="stop-color:#F63D78"/>
	</linearGradient>
	<path id="XMLID_6_" class="st1" d="M66.2,1.2c-35.9,0-65,29.1-65,65c0,35.9,29.1,65,65,65c35.9,0,65-29.1,65-65
		C131.2,30.3,102.1,1.2,66.2,1.2z M66.6,87.8h-0.2c-6.4-13-19.3-16.3-19.3-27.8v0c0-0.2-0.5-0.3-0.5-0.5c0.1-2.6,0.8-4.9,2.5-6.6
		c2.1-2.4,5.2-3.8,8.7-3.8c3.6,0,6.7,1.6,8.8,4c2.1-2.4,5.3-4,8.9-4c3.5,0,6.6,1.8,8.7,4.1c0.9,0.9,1.6,2.1,2.1,3.3
		c-0.6-0.1-1.3-0.2-1.9-0.2c-6.5,0-11.8,5.3-11.8,11.8c0,3.2,1.3,6.3,3.3,8.4C72.7,79.6,69,82.8,66.6,87.8z M84.5,77
		c-4.9,0-8.8-4-8.8-8.8c0-4.9,4-8.8,8.8-8.8c4.9,0,8.8,4,8.8,8.8C93.3,73.1,89.4,77,84.5,77z"/>
</g>
</svg>
