<?xml version="1.0" encoding="utf-8"?>
<!-- Generator: Adobe Illustrator 19.0.0, SVG Export Plug-In . SVG Version: 6.00 Build 0)  -->
<svg version="1.1" id="Livello_1" xmlns="http://www.w3.org/2000/svg" xmlns:xlink="http://www.w3.org/1999/xlink" x="0px" y="0px"
	 viewBox="0 0 19.5 19.5" style="enable-background:new 0 0 19.5 19.5;" xml:space="preserve">
<style type="text/css">
	.st0{fill:url(#XMLID_2_);}
	.st1{fill:url(#XMLID_21_);}
	.st2{fill:url(#XMLID_22_);}
	.st3{fill:url(#XMLID_23_);}
	.st4{fill:url(#XMLID_24_);}
	.st5{fill:url(#XMLID_25_);}
	.st6{fill:url(#XMLID_26_);}
</style>
<g id="XMLID_76_">
	<linearGradient id="XMLID_2_" gradientUnits="userSpaceOnUse" x1="9.75" y1="3.4446" x2="9.75" y2="15.7692">
		<stop  offset="0" style="stop-color:#6B8BFF"/>
		<stop  offset="1" style="stop-color:#C77EF1"/>
	</linearGradient>
	<path id="XMLID_200_" class="st0" d="M14.3,4.9h-0.9V4.7c0-0.5-0.4-0.9-0.9-0.9h0c-0.5,0-0.9,0.4-0.9,0.9v0.2h-0.9V4.7
		c0-0.5-0.4-0.9-0.9-0.9h0c-0.5,0-0.9,0.4-0.9,0.9v0.2H7.7V4.7c0-0.5-0.4-0.9-0.9-0.9h0c-0.5,0-0.9,0.4-0.9,0.9v0.2H5.2
		C4.5,4.9,4,5.5,4,6.1v8.4c0,0.6,0.5,1.2,1.2,1.2h9.1c0.6,0,1.2-0.5,1.2-1.2V6.1C15.5,5.5,15,4.9,14.3,4.9z M12.3,4.7
		c0-0.1,0.1-0.2,0.2-0.2h0c0.1,0,0.2,0.1,0.2,0.2v0.2v0.4v0.4c0,0.1-0.1,0.2-0.2,0.2h0c-0.1,0-0.2-0.1-0.2-0.2V5.3V4.9V4.7z
		 M9.5,4.7c0-0.1,0.1-0.2,0.2-0.2h0c0.1,0,0.2,0.1,0.2,0.2v0.2v0.4v0.4c0,0.1-0.1,0.2-0.2,0.2h0c-0.1,0-0.2-0.1-0.2-0.2V5.3V4.9V4.7
		z M6.6,4.7c0-0.1,0.1-0.2,0.2-0.2h0C6.9,4.5,7,4.6,7,4.7v0.2v0.4v0.4c0,0.1-0.1,0.2-0.2,0.2h0c-0.1,0-0.2-0.1-0.2-0.2V5.3V4.9V4.7z
		 M5.2,5.6h0.7v0.1c0,0.5,0.4,0.9,0.9,0.9h0c0.5,0,0.9-0.4,0.9-0.9V5.6h1.1v0.1c0,0.5,0.4,0.9,0.9,0.9h0c0.5,0,0.9-0.4,0.9-0.9V5.6
		h0.9v0.1c0,0.5,0.4,0.9,0.9,0.9h0c0.5,0,0.9-0.4,0.9-0.9V5.6h0.9c0.3,0,0.5,0.2,0.5,0.5v1.6H4.7V6.1C4.7,5.8,4.9,5.6,5.2,5.6z
		 M14.3,15H5.2c-0.3,0-0.5-0.2-0.5-0.5V8.4h10.1v6.1C14.8,14.7,14.6,15,14.3,15z"/>
	<linearGradient id="XMLID_21_" gradientUnits="userSpaceOnUse" x1="6.7972" y1="3.4446" x2="6.7972" y2="15.7692">
		<stop  offset="0" style="stop-color:#6B8BFF"/>
		<stop  offset="1" style="stop-color:#C77EF1"/>
	</linearGradient>
	<path id="XMLID_197_" class="st1" d="M6.8,9.1c-0.5,0-1,0.4-1,1c0,0.5,0.4,1,1,1c0.5,0,1-0.4,1-1C7.8,9.6,7.3,9.1,6.8,9.1z
		 M6.8,10.4c-0.1,0-0.3-0.1-0.3-0.3c0-0.1,0.1-0.3,0.3-0.3c0.1,0,0.3,0.1,0.3,0.3C7.1,10.3,6.9,10.4,6.8,10.4z"/>
	<linearGradient id="XMLID_22_" gradientUnits="userSpaceOnUse" x1="9.75" y1="3.4446" x2="9.75" y2="15.7692">
		<stop  offset="0" style="stop-color:#6B8BFF"/>
		<stop  offset="1" style="stop-color:#C77EF1"/>
	</linearGradient>
	<path id="XMLID_194_" class="st2" d="M9.7,9.1c-0.5,0-1,0.4-1,1c0,0.5,0.4,1,1,1c0.5,0,1-0.4,1-1C10.7,9.5,10.3,9.1,9.7,9.1z
		 M9.7,10.3c-0.1,0-0.3-0.1-0.3-0.3c0-0.1,0.1-0.3,0.3-0.3c0.1,0,0.3,0.1,0.3,0.3C10,10.2,9.9,10.3,9.7,10.3z"/>
	<linearGradient id="XMLID_23_" gradientUnits="userSpaceOnUse" x1="12.7027" y1="3.4446" x2="12.7027" y2="15.7692">
		<stop  offset="0" style="stop-color:#6B8BFF"/>
		<stop  offset="1" style="stop-color:#C77EF1"/>
	</linearGradient>
	<path id="XMLID_191_" class="st3" d="M12.7,9.2c-0.5,0-1,0.4-1,1s0.4,1,1,1c0.5,0,1-0.4,1-1S13.2,9.2,12.7,9.2z M12.7,10.4
		c-0.1,0-0.3-0.1-0.3-0.3c0-0.1,0.1-0.3,0.3-0.3c0.1,0,0.3,0.1,0.3,0.3C13,10.3,12.8,10.4,12.7,10.4z"/>
	<linearGradient id="XMLID_24_" gradientUnits="userSpaceOnUse" x1="6.7972" y1="3.4446" x2="6.7972" y2="15.7692">
		<stop  offset="0" style="stop-color:#6B8BFF"/>
		<stop  offset="1" style="stop-color:#C77EF1"/>
	</linearGradient>
	<path id="XMLID_188_" class="st4" d="M6.8,11.8c-0.5,0-1,0.4-1,1c0,0.5,0.4,1,1,1c0.5,0,1-0.4,1-1C7.8,12.2,7.3,11.8,6.8,11.8z
		 M6.8,13c-0.1,0-0.3-0.1-0.3-0.3c0-0.1,0.1-0.3,0.3-0.3c0.1,0,0.3,0.1,0.3,0.3C7.1,12.9,6.9,13,6.8,13z"/>
	<linearGradient id="XMLID_25_" gradientUnits="userSpaceOnUse" x1="9.7499" y1="3.4446" x2="9.7499" y2="15.7692">
		<stop  offset="0" style="stop-color:#6B8BFF"/>
		<stop  offset="1" style="stop-color:#C77EF1"/>
	</linearGradient>
	<path id="XMLID_80_" class="st5" d="M9.7,11.7c-0.5,0-1,0.4-1,1c0,0.5,0.4,1,1,1c0.5,0,1-0.4,1-1C10.7,12.2,10.3,11.7,9.7,11.7z
		 M9.7,13c-0.1,0-0.3-0.1-0.3-0.3c0-0.1,0.1-0.3,0.3-0.3c0.1,0,0.3,0.1,0.3,0.3C10,12.9,9.9,13,9.7,13z"/>
	<linearGradient id="XMLID_26_" gradientUnits="userSpaceOnUse" x1="12.7026" y1="3.4446" x2="12.7026" y2="15.7692">
		<stop  offset="0" style="stop-color:#6B8BFF"/>
		<stop  offset="1" style="stop-color:#C77EF1"/>
	</linearGradient>
	<path id="XMLID_77_" class="st6" d="M12.7,11.9c-0.5,0-1,0.4-1,1c0,0.5,0.4,1,1,1s1-0.4,1-1C13.7,12.3,13.2,11.9,12.7,11.9z
		 M12.7,13.1c-0.1,0-0.3-0.1-0.3-0.3c0-0.1,0.1-0.3,0.3-0.3s0.3,0.1,0.3,0.3C13,13,12.8,13.1,12.7,13.1z"/>
</g>
</svg>
