<?xml version="1.0" encoding="utf-8"?>
<!-- Generator: Adobe Illustrator 19.0.0, SVG Export Plug-In . SVG Version: 6.00 Build 0)  -->
<svg version="1.1" id="Livello_1" xmlns="http://www.w3.org/2000/svg" xmlns:xlink="http://www.w3.org/1999/xlink" x="0px" y="0px"
	 viewBox="0 0 65 65" style="enable-background:new 0 0 65 65;" xml:space="preserve">
<style type="text/css">
	.st0{fill:url(#leaf_2_);}
</style>
<linearGradient id="leaf_2_" gradientUnits="userSpaceOnUse" x1="32.5" y1="9.9377" x2="32.5" y2="70.9547">
	<stop  offset="0" style="stop-color:#ED944A"/>
	<stop  offset="1" style="stop-color:#F63D78"/>
</linearGradient>
<path id="leaf_1_" class="st0" d="M56.5,8.5c-2.3-0.6-12.1-1-14.6-1c-14.9,0-24.4,4.6-24.4,19.4c0,1.9,0.2,11.3,0.6,16.4l-9.9,9.9
	c-1,1-1,2.6,0,3.5s2.6,1,3.5,0l9.9-9.9c5.2,0.4,14.5,0.6,16.4,0.6c14.9,0,19.4-12.1,19.4-26.9C57.5,18.1,57.1,10.7,56.5,8.5z
	 M38.1,42.5c-1.9,0-7.2-0.1-11.7-0.3l8.9-8.9l7.3,3.1c0.9,0.4,1.9,0.2,2.5-0.5c1.2-1.2,0.8-3.1-0.7-3.8l-5.5-2.3l7-7
	c1-1,1-2.6,0-3.5s-2.6-1-3.5,0l-3.3,3.3L37,19.2c-0.8-1.4-2.7-1.6-3.8-0.5c-0.8,0.8-0.9,2-0.4,2.9l2.6,4.4L22.8,38.6
	c-0.2-4.5-0.3-9.8-0.3-11.7c0-8.9,3.2-14.4,19.4-14.4c2.1,0,6.9,0.2,10.2,0.4c0.2,2.5,0.4,5.8,0.4,7.6C52.5,42.5,42,42.5,38.1,42.5z
	"/>
</svg>
